<mxfile host="app.diagrams.net" modified="2021-12-25T11:38:31.648Z" agent="5.0 (X11)" etag="A4XQ4E_KjCjwsgOttI-a" version="16.0.0" type="github">
  <diagram id="roB4mcTKzgv7qSpD-_hf" name="Page-1">
    <mxGraphModel dx="1564" dy="836" grid="1" gridSize="10" guides="1" tooltips="1" connect="1" arrows="1" fold="1" page="1" pageScale="1" pageWidth="827" pageHeight="1169" math="0" shadow="0">
      <root>
        <mxCell id="0" />
        <mxCell id="1" parent="0" />
        <mxCell id="e41JtGNy9nOeHxodAh7b-10" style="edgeStyle=orthogonalEdgeStyle;rounded=0;orthogonalLoop=1;jettySize=auto;html=1;entryX=0.5;entryY=0;entryDx=0;entryDy=0;" edge="1" parent="1" source="e41JtGNy9nOeHxodAh7b-1" target="e41JtGNy9nOeHxodAh7b-2">
          <mxGeometry relative="1" as="geometry" />
        </mxCell>
        <mxCell id="e41JtGNy9nOeHxodAh7b-1" value="Начало" style="ellipse;whiteSpace=wrap;html=1;" vertex="1" parent="1">
          <mxGeometry x="354" y="80" width="120" height="80" as="geometry" />
        </mxCell>
        <mxCell id="e41JtGNy9nOeHxodAh7b-11" style="edgeStyle=orthogonalEdgeStyle;rounded=0;orthogonalLoop=1;jettySize=auto;html=1;entryX=0.5;entryY=0;entryDx=0;entryDy=0;" edge="1" parent="1" source="e41JtGNy9nOeHxodAh7b-2" target="e41JtGNy9nOeHxodAh7b-3">
          <mxGeometry relative="1" as="geometry" />
        </mxCell>
        <mxCell id="e41JtGNy9nOeHxodAh7b-2" value="Ввод: num = Введите целое число" style="shape=parallelogram;perimeter=parallelogramPerimeter;whiteSpace=wrap;html=1;fixedSize=1;" vertex="1" parent="1">
          <mxGeometry x="354" y="200" width="120" height="60" as="geometry" />
        </mxCell>
        <mxCell id="e41JtGNy9nOeHxodAh7b-12" style="edgeStyle=orthogonalEdgeStyle;rounded=0;orthogonalLoop=1;jettySize=auto;html=1;entryX=0.5;entryY=0;entryDx=0;entryDy=0;" edge="1" parent="1" source="e41JtGNy9nOeHxodAh7b-3" target="e41JtGNy9nOeHxodAh7b-4">
          <mxGeometry relative="1" as="geometry" />
        </mxCell>
        <mxCell id="e41JtGNy9nOeHxodAh7b-3" value="count_even = 0" style="rounded=0;whiteSpace=wrap;html=1;" vertex="1" parent="1">
          <mxGeometry x="354" y="300" width="120" height="60" as="geometry" />
        </mxCell>
        <mxCell id="e41JtGNy9nOeHxodAh7b-25" style="edgeStyle=orthogonalEdgeStyle;rounded=0;orthogonalLoop=1;jettySize=auto;html=1;entryX=0.5;entryY=0;entryDx=0;entryDy=0;" edge="1" parent="1" source="e41JtGNy9nOeHxodAh7b-4" target="e41JtGNy9nOeHxodAh7b-24">
          <mxGeometry relative="1" as="geometry" />
        </mxCell>
        <mxCell id="e41JtGNy9nOeHxodAh7b-4" value="count_odd = 0" style="rounded=0;whiteSpace=wrap;html=1;" vertex="1" parent="1">
          <mxGeometry x="354" y="390" width="120" height="60" as="geometry" />
        </mxCell>
        <mxCell id="e41JtGNy9nOeHxodAh7b-14" style="edgeStyle=orthogonalEdgeStyle;rounded=0;orthogonalLoop=1;jettySize=auto;html=1;entryX=0.5;entryY=0;entryDx=0;entryDy=0;" edge="1" parent="1" source="e41JtGNy9nOeHxodAh7b-5" target="e41JtGNy9nOeHxodAh7b-8">
          <mxGeometry relative="1" as="geometry">
            <Array as="points">
              <mxPoint x="514" y="640" />
            </Array>
          </mxGeometry>
        </mxCell>
        <mxCell id="e41JtGNy9nOeHxodAh7b-17" style="edgeStyle=orthogonalEdgeStyle;rounded=0;orthogonalLoop=1;jettySize=auto;html=1;entryX=0.5;entryY=0;entryDx=0;entryDy=0;" edge="1" parent="1" source="e41JtGNy9nOeHxodAh7b-5" target="e41JtGNy9nOeHxodAh7b-9">
          <mxGeometry relative="1" as="geometry">
            <Array as="points">
              <mxPoint x="314" y="640" />
            </Array>
          </mxGeometry>
        </mxCell>
        <mxCell id="e41JtGNy9nOeHxodAh7b-5" value="dig = 1" style="rhombus;whiteSpace=wrap;html=1;" vertex="1" parent="1">
          <mxGeometry x="374" y="600" width="80" height="80" as="geometry" />
        </mxCell>
        <mxCell id="e41JtGNy9nOeHxodAh7b-6" value="Да" style="text;html=1;strokeColor=none;fillColor=none;align=center;verticalAlign=middle;whiteSpace=wrap;rounded=0;" vertex="1" parent="1">
          <mxGeometry x="430" y="600" width="60" height="30" as="geometry" />
        </mxCell>
        <mxCell id="e41JtGNy9nOeHxodAh7b-7" value="Нет" style="text;html=1;strokeColor=none;fillColor=none;align=center;verticalAlign=middle;whiteSpace=wrap;rounded=0;" vertex="1" parent="1">
          <mxGeometry x="340" y="600" width="60" height="30" as="geometry" />
        </mxCell>
        <mxCell id="e41JtGNy9nOeHxodAh7b-21" style="edgeStyle=orthogonalEdgeStyle;rounded=0;orthogonalLoop=1;jettySize=auto;html=1;entryX=0.5;entryY=0;entryDx=0;entryDy=0;" edge="1" parent="1" source="e41JtGNy9nOeHxodAh7b-8" target="e41JtGNy9nOeHxodAh7b-18">
          <mxGeometry relative="1" as="geometry" />
        </mxCell>
        <mxCell id="e41JtGNy9nOeHxodAh7b-27" style="edgeStyle=orthogonalEdgeStyle;rounded=0;orthogonalLoop=1;jettySize=auto;html=1;entryX=1;entryY=0.5;entryDx=0;entryDy=0;" edge="1" parent="1" source="e41JtGNy9nOeHxodAh7b-8" target="e41JtGNy9nOeHxodAh7b-24">
          <mxGeometry relative="1" as="geometry">
            <Array as="points">
              <mxPoint x="590" y="730" />
              <mxPoint x="590" y="510" />
            </Array>
          </mxGeometry>
        </mxCell>
        <mxCell id="e41JtGNy9nOeHxodAh7b-8" value="count_odd += 1" style="rounded=0;whiteSpace=wrap;html=1;" vertex="1" parent="1">
          <mxGeometry x="454" y="700" width="120" height="60" as="geometry" />
        </mxCell>
        <mxCell id="e41JtGNy9nOeHxodAh7b-19" style="edgeStyle=orthogonalEdgeStyle;rounded=0;orthogonalLoop=1;jettySize=auto;html=1;entryX=0.5;entryY=0;entryDx=0;entryDy=0;" edge="1" parent="1" source="e41JtGNy9nOeHxodAh7b-9" target="e41JtGNy9nOeHxodAh7b-18">
          <mxGeometry relative="1" as="geometry" />
        </mxCell>
        <mxCell id="e41JtGNy9nOeHxodAh7b-28" style="edgeStyle=orthogonalEdgeStyle;rounded=0;orthogonalLoop=1;jettySize=auto;html=1;entryX=0;entryY=0.5;entryDx=0;entryDy=0;" edge="1" parent="1" source="e41JtGNy9nOeHxodAh7b-9" target="e41JtGNy9nOeHxodAh7b-24">
          <mxGeometry relative="1" as="geometry">
            <Array as="points">
              <mxPoint x="240" y="730" />
              <mxPoint x="240" y="510" />
            </Array>
          </mxGeometry>
        </mxCell>
        <mxCell id="e41JtGNy9nOeHxodAh7b-9" value="count_even += 1" style="rounded=0;whiteSpace=wrap;html=1;" vertex="1" parent="1">
          <mxGeometry x="254" y="700" width="120" height="60" as="geometry" />
        </mxCell>
        <mxCell id="e41JtGNy9nOeHxodAh7b-23" style="edgeStyle=orthogonalEdgeStyle;rounded=0;orthogonalLoop=1;jettySize=auto;html=1;entryX=0.5;entryY=0;entryDx=0;entryDy=0;" edge="1" parent="1" source="e41JtGNy9nOeHxodAh7b-18" target="e41JtGNy9nOeHxodAh7b-22">
          <mxGeometry relative="1" as="geometry" />
        </mxCell>
        <mxCell id="e41JtGNy9nOeHxodAh7b-18" value="Вывод: Количество четных цифр в вашем числе count_even, количество нечетных - count_odd" style="shape=parallelogram;perimeter=parallelogramPerimeter;whiteSpace=wrap;html=1;fixedSize=1;" vertex="1" parent="1">
          <mxGeometry x="299" y="830" width="230" height="60" as="geometry" />
        </mxCell>
        <mxCell id="e41JtGNy9nOeHxodAh7b-22" value="Конец" style="ellipse;whiteSpace=wrap;html=1;" vertex="1" parent="1">
          <mxGeometry x="354" y="920" width="120" height="80" as="geometry" />
        </mxCell>
        <mxCell id="e41JtGNy9nOeHxodAh7b-26" style="edgeStyle=orthogonalEdgeStyle;rounded=0;orthogonalLoop=1;jettySize=auto;html=1;entryX=0.5;entryY=0;entryDx=0;entryDy=0;" edge="1" parent="1" source="e41JtGNy9nOeHxodAh7b-24" target="e41JtGNy9nOeHxodAh7b-5">
          <mxGeometry relative="1" as="geometry" />
        </mxCell>
        <mxCell id="e41JtGNy9nOeHxodAh7b-24" value="dig =int(num) % 10" style="rounded=0;whiteSpace=wrap;html=1;" vertex="1" parent="1">
          <mxGeometry x="354" y="480" width="120" height="60" as="geometry" />
        </mxCell>
      </root>
    </mxGraphModel>
  </diagram>
</mxfile>
